<svg width="36" height="47" viewBox="0 0 36 47" fill="none" xmlns="http://www.w3.org/2000/svg">
<circle cx="18" cy="18" r="18" fill="#3D2B1F"/>
<path d="M11.8119 32.4589L24.8017 32.5832L18.1992 43.7705L11.8119 32.4589Z" fill="#3D2B1F"/>
<path d="M9.875 26.75C9.875 26.75 8.25 26.75 8.25 25.125C8.25 23.5 9.875 18.625 18 18.625C26.125 18.625 27.75 23.5 27.75 25.125C27.75 26.75 26.125 26.75 26.125 26.75H9.875ZM18 17C19.2929 17 20.5329 16.4864 21.4471 15.5721C22.3614 14.6579 22.875 13.4179 22.875 12.125C22.875 10.8321 22.3614 9.59209 21.4471 8.67785C20.5329 7.76361 19.2929 7.25 18 7.25C16.7071 7.25 15.4671 7.76361 14.5529 8.67785C13.6386 9.59209 13.125 10.8321 13.125 12.125C13.125 13.4179 13.6386 14.6579 14.5529 15.5721C15.4671 16.4864 16.7071 17 18 17Z" fill="#EFDECD"/>
</svg>
