<svg width="32" height="32" viewBox="0 0 32 32" fill="none" xmlns="http://www.w3.org/2000/svg">
<g clip-path="url(#clip0_1030_3361)">
<path d="M16 31.9309C15.9774 31.9091 15.9438 31.8768 15.9001 31.8343C15.8123 31.7491 15.6836 31.6229 15.5197 31.4591C15.1919 31.1317 14.7236 30.6541 14.1615 30.0541C13.0373 28.854 11.5384 27.1642 10.0397 25.2051C8.54088 23.2459 7.04291 21.0183 5.91984 18.7428C4.79649 16.4667 4.05 14.1462 4.05 12C4.05 8.83066 5.30901 5.79113 7.55007 3.55007C9.79113 1.30901 12.8307 0.05 16 0.05C19.1693 0.05 22.2089 1.30901 24.4499 3.55007C26.691 5.79113 27.95 8.83066 27.95 12C27.95 14.1462 27.2035 16.4667 26.0802 18.7428C24.9571 21.0183 23.4591 23.2459 21.9603 25.2051C20.4616 27.1642 18.9627 28.854 17.8385 30.0541C17.2764 30.6541 16.8081 31.1317 16.4803 31.4591C16.3164 31.6229 16.1877 31.7491 16.0999 31.8343C16.0562 31.8768 16.0226 31.9091 16 31.9309ZM11.722 16.278C12.8566 17.4126 14.3954 18.05 16 18.05C17.6046 18.05 19.1434 17.4126 20.278 16.278C21.4126 15.1434 22.05 13.6046 22.05 12C22.05 10.3954 21.4126 8.8566 20.278 7.722C19.1434 6.58741 17.6046 5.95 16 5.95C14.3954 5.95 12.8566 6.58741 11.722 7.722C10.5874 8.8566 9.95 10.3954 9.95 12C9.95 13.6046 10.5874 15.1434 11.722 16.278Z" fill="#FFBF00" stroke="black" stroke-width="0.1"/>
</g>
<defs>
<clipPath id="clip0_1030_3361">
<rect width="32" height="32" fill="white"/>
</clipPath>
</defs>
</svg>
